<?xml version="1.0" encoding="utf-8"?>
<!-- Generator: Adobe Illustrator 23.0.6, SVG Export Plug-In . SVG Version: 6.00 Build 0)  -->
<svg version="1.1" id="Layer_1" focusable="false" xmlns="http://www.w3.org/2000/svg" xmlns:xlink="http://www.w3.org/1999/xlink"
	 x="0px" y="0px" viewBox="0 0 512 512" style="enable-background:new 0 0 512 512;" xml:space="preserve">
<style type="text/css">
	.st0{fill:#3FA0FF;}
</style>
<path class="st0" d="M480,160V77.3c0-8.5-3.4-16.6-9.4-22.6L425.4,9.4c-6-6-14.1-9.4-22.6-9.4H160c-17.7,0-32,14.3-32,32v448
	c0,17.7,14.3,32,32,32h320c17.7,0,32-14.3,32-32V192C512,174.3,497.7,160,480,160z M288,432c0,8.8-7.2,16-16,16h-32
	c-8.8,0-16-7.2-16-16v-32c0-8.8,7.2-16,16-16h32c8.8,0,16,7.2,16,16V432z M288,304c0,8.8-7.2,16-16,16h-32c-8.8,0-16-7.2-16-16v-32
	c0-8.8,7.2-16,16-16h32c8.8,0,16,7.2,16,16V304z M416,432c0,8.8-7.2,16-16,16h-32c-8.8,0-16-7.2-16-16v-32c0-8.8,7.2-16,16-16h32
	c8.8,0,16,7.2,16,16V432z M416,304c0,8.8-7.2,16-16,16h-32c-8.8,0-16-7.2-16-16v-32c0-8.8,7.2-16,16-16h32c8.8,0,16,7.2,16,16V304z
	 M416,192H192V64h160v48c0,8.8,7.2,16,16,16h48V192z M64,128H32c-17.7,0-32,14.3-32,32v320c0,17.7,14.3,32,32,32h32
	c17.7,0,32-14.3,32-32V160C96,142.3,81.7,128,64,128z"/>
</svg>
