<?xml version="1.0" encoding="utf-8"?>
<!-- Generator: Adobe Illustrator 23.0.6, SVG Export Plug-In . SVG Version: 6.00 Build 0)  -->
<svg version="1.1" id="Layer_1" focusable="false" xmlns="http://www.w3.org/2000/svg" xmlns:xlink="http://www.w3.org/1999/xlink"
	 x="0px" y="0px" viewBox="0 0 448 387.4" style="enable-background:new 0 0 448 387.4;" xml:space="preserve">
<style type="text/css">
	.st0{fill:#C4C4C4;}
</style>
<path class="st0" d="M447.8,89.5c-2,43.6-32.4,103.3-91.4,179.1C295.5,347.8,244,387.4,201.8,387.4c-26.1,0-48.2-24.1-66.3-72.3
	c-35.2-129.2-50.2-204.9-79.3-204.9c-3.4,0-15.1,7.1-35.2,21.1L0,104.1C51.6,58.8,100.9,8.4,131.8,5.6c34.9-3.4,56.3,20.5,64.4,71.5
	c28.7,181.5,41.4,208.9,93.6,126.7c18.7-29.6,28.8-52.1,30.2-67.6c4.8-45.9-35.8-42.8-63.3-31c22-72.1,64.1-107.1,126.2-105.1
	C428.7,1.3,450.4,31.2,447.8,89.5L447.8,89.5z"/>
</svg>
