<?xml version="1.0" encoding="utf-8"?>
<!-- Generator: Adobe Illustrator 24.0.1, SVG Export Plug-In . SVG Version: 6.00 Build 0)  -->
<svg version="1.1" id="Layer_1" xmlns="http://www.w3.org/2000/svg" xmlns:xlink="http://www.w3.org/1999/xlink" x="0px" y="0px"
	 width="27.3px" height="44px" viewBox="0 0 27.3 44" enable-background="new 0 0 27.3 44" xml:space="preserve">
<title>map-icon-blue</title>
<path fill="#00ACC1" d="M13.6,0.5C6.4,0.5,0.5,6.4,0.5,13.6c0,0,0,0,0,0c0,9.9,11.1,15.1,12.4,29.2c0,0.4,0.4,0.7,0.8,0.7
	c0.4,0,0.7-0.3,0.8-0.7c1.3-14.1,12.3-19.3,12.3-29.2C26.8,6.4,20.9,0.5,13.6,0.5z"/>
<circle fill="#006874" cx="13.6" cy="13.6" r="4.6"/>
<path fill="#FFFFFF" d="M13.6,0.8c7.2,0,13,5.8,13.1,12.9v-0.1c0-7.3-5.9-13.2-13.1-13.2S0.5,6.4,0.5,13.6c0,0,0,0.1,0,0.1
	C0.6,6.6,6.4,0.8,13.6,0.8z"/>
<path fill="#FFFFFF" d="M14.4,42.5c0,0.4-0.4,0.7-0.8,0.7c-0.4,0-0.7-0.3-0.8-0.7c-1.3-14-12.3-19.2-12.4-29c0,0.1,0,0.1,0,0.2
	c0,9.9,11,15.1,12.3,29.2c0,0.4,0.4,0.7,0.8,0.7c0.4,0,0.7-0.3,0.8-0.7c1.3-14.1,12.4-19.3,12.4-29.2v-0.2
	C26.6,23.2,15.7,28.4,14.4,42.5z"/>
<image display="none" overflow="visible" width="79" height="90" xlink:href="A7234CF2.jpg"  transform="matrix(1 0 0 1 53 -10.375)">
</image>
<image display="none" overflow="visible" width="171" height="99" xlink:href="A7234CF6.jpg"  transform="matrix(1 0 0 1 -29.625 -106.6458)">
</image>
<g>
	<g>
		
			<image overflow="visible" opacity="0.5" width="451" height="76" xlink:href="A7234CF6.png"  transform="matrix(1 0 0 1 -185.64 -68.64)">
		</image>
		
			<linearGradient id="SVGID_1_" gradientUnits="userSpaceOnUse" x1="36.3066" y1="-37.211" x2="36.3066" y2="2.9366" gradientTransform="matrix(1 0 0 1.4198 0 -10.3472)">
			<stop  offset="0" style="stop-color:#39BB7F"/>
			<stop  offset="0.5437" style="stop-color:#4EC38C"/>
			<stop  offset="1" style="stop-color:#63CC99"/>
		</linearGradient>
		<rect x="-179.7" y="-63.2" fill="url(#SVGID_1_)" width="432" height="57"/>
	</g>
	<rect x="-179.7" y="-63.2" fill="none" stroke="#209156" stroke-miterlimit="10" width="432" height="57"/>
</g>
<image overflow="visible" width="452" height="151" xlink:href="../../Harrisburg International RFQ/hia-logo.png"  transform="matrix(1 0 0 1 -99.5 -249.5)">
</image>
</svg>
