<svg id="Layer_1" data-name="Layer 1" xmlns="http://www.w3.org/2000/svg" width="27.26" height="44" viewBox="0 0 27.26 44"><defs><style>.cls-1{fill:#1b75bc;stroke:#fff;stroke-miterlimit:10;}.cls-2{fill:#2b3990;}.cls-3{fill:#fff;}</style></defs><title>map-icon-blue</title><path class="cls-1" d="M13.63.5A13.13,13.13,0,0,0,.5,13.63c0,9.9,11.05,15.05,12.36,29.17a.77.77,0,0,0,.77.7.78.78,0,0,0,.78-.7c1.3-14.12,12.35-19.27,12.35-29.17A13.13,13.13,0,0,0,13.63.5Z"/><circle class="cls-2" cx="13.63" cy="13.63" r="4.6"/><path class="cls-3" d="M13.63.83A13.13,13.13,0,0,1,26.76,13.77v-.14a13.13,13.13,0,0,0-26.26,0s0,.09,0,.14A13.12,13.12,0,0,1,13.63.83Z"/><path class="cls-3" d="M14.41,42.47a.79.79,0,0,1-.78.71.77.77,0,0,1-.77-.71c-1.3-14-12.25-19.23-12.35-29,0,.07,0,.13,0,.19,0,9.9,11.05,15.05,12.36,29.17a.77.77,0,0,0,.77.7.78.78,0,0,0,.78-.7c1.3-14.12,12.35-19.27,12.35-29.17v-.19C26.65,23.24,15.71,28.42,14.41,42.47Z"/></svg>