<?xml version="1.0" encoding="utf-8"?>
<!-- Generator: Adobe Illustrator 23.0.3, SVG Export Plug-In . SVG Version: 6.00 Build 0)  -->
<svg version="1.1" id="Layer_1" xmlns="http://www.w3.org/2000/svg" xmlns:xlink="http://www.w3.org/1999/xlink" x="0px" y="0px"
	 viewBox="0 0 577.4 674" style="enable-background:new 0 0 577.4 674;" xml:space="preserve">
<style type="text/css">
	.st0{display:none;stroke:#231F20;stroke-miterlimit:10;}
	.st1{display:none;}
	.st2{display:inline;fill:#FFFFFF;}
</style>
<rect x="3" y="8.1" class="st0" width="571.4" height="663.5"/>
<g class="st1">
	<path class="st2" d="M22.3,662.1h-5.6l20.9-54.7H44l20.9,54.7h-5.7l-6.5-17.2h-24L22.3,662.1z M51,639.9l-10.2-27.5l-10.1,27.5H51z
		"/>
	<path class="st2" d="M68.2,646.4h5.1c0.1,3.4,1,6.1,2.8,8.1s4.1,3,7.1,3c3.1,0,5.6-1,7.5-3c1.8-2,2.8-4.7,2.8-8.1
		c0-5-3.8-8.7-11.3-11.2c-0.6-0.2-1-0.4-1.3-0.5c-4-1.4-6.8-3.1-8.5-5.2s-2.6-4.9-2.6-8.3c0-4.4,1.3-7.9,4-10.7s6.1-4.2,10.4-4.2
		c4.1,0,7.3,1.3,9.6,3.8c2.4,2.5,3.7,6.1,4,10.7h-5c-0.3-3-1.1-5.3-2.6-6.9c-1.5-1.6-3.5-2.4-6-2.4c-2.7,0-4.9,0.9-6.5,2.7
		c-1.7,1.8-2.5,4-2.5,6.7c0,1.4,0.3,2.7,0.8,3.7s1.3,2,2.4,2.8c1.1,0.9,3.3,1.8,6.5,2.9c1.9,0.6,3.3,1.1,4.2,1.5
		c3.5,1.4,6,3.1,7.6,5.3c1.5,2.1,2.3,5,2.3,8.4c0,5.3-1.4,9.6-4.3,12.8s-6.6,4.9-11.4,4.9c-4.4,0-8-1.5-10.7-4.6
		C69.7,655.5,68.3,651.4,68.2,646.4z"/>
	<path class="st2" d="M103.5,646.4h5.1c0.1,3.4,1,6.1,2.8,8.1s4.1,3,7.1,3c3.1,0,5.6-1,7.5-3c1.8-2,2.8-4.7,2.8-8.1
		c0-5-3.8-8.7-11.3-11.2c-0.6-0.2-1-0.4-1.3-0.5c-4-1.4-6.8-3.1-8.5-5.2s-2.6-4.9-2.6-8.3c0-4.4,1.3-7.9,4-10.7s6.1-4.2,10.4-4.2
		c4.1,0,7.3,1.3,9.6,3.8c2.4,2.5,3.7,6.1,4,10.7h-5c-0.3-3-1.1-5.3-2.6-6.9c-1.5-1.6-3.5-2.4-6-2.4c-2.7,0-4.9,0.9-6.5,2.7
		c-1.7,1.8-2.5,4-2.5,6.7c0,1.4,0.3,2.7,0.8,3.7s1.3,2,2.4,2.8c1.1,0.9,3.3,1.8,6.5,2.9c1.9,0.6,3.3,1.1,4.2,1.5
		c3.5,1.4,6,3.1,7.6,5.3c1.5,2.1,2.3,5,2.3,8.4c0,5.3-1.4,9.6-4.3,12.8c-2.9,3.2-6.6,4.9-11.4,4.9c-4.4,0-8-1.5-10.7-4.6
		C105,655.5,103.6,651.4,103.5,646.4z"/>
	<path class="st2" d="M138.9,634.3c0-3.8,0.7-7.4,2.2-10.9s3.5-6.6,6.3-9.3c2.6-2.6,5.6-4.6,8.7-5.9c3.2-1.3,6.6-2,10.3-2
		c3.8,0,7.3,0.7,10.5,2s6.2,3.3,8.8,6c2.7,2.7,4.8,5.8,6.2,9.2s2.1,7,2.1,10.9s-0.6,7.5-1.8,10.7s-3,6.2-5.3,8.9
		c-2.7,3.1-5.8,5.4-9.3,6.9c-3.5,1.6-7.2,2.3-11.3,2.3c-7.8,0-14.3-2.8-19.5-8.3C141.6,649.3,138.9,642.5,138.9,634.3z M144.5,634.4
		c0,6.7,2.1,12.3,6.4,16.8s9.6,6.8,15.8,6.8c6.1,0,11.3-2.3,15.5-6.8c4.2-4.6,6.3-10.2,6.3-16.8c0-6.2-2.2-11.6-6.5-16.1
		c-4.4-4.5-9.6-6.7-15.7-6.7c-2.5,0-4.9,0.4-7.2,1.3c-2.3,0.9-4.4,2.1-6.4,3.8c-2.6,2.2-4.6,4.9-6.1,8.1
		C145.2,627.8,144.5,631.1,144.5,634.4z"/>
	<path class="st2" d="M244.5,621.5c-2.4-3.4-5.1-5.9-8.1-7.5s-6.4-2.4-10.2-2.4c-6,0-11.1,2.3-15.4,6.8c-4.3,4.5-6.4,9.9-6.4,16.1
		c0,6.6,2.1,12.2,6.4,16.7c4.2,4.5,9.4,6.8,15.4,6.8c3.7,0,7.1-0.8,10.1-2.4c3-1.6,5.6-3.9,7.9-7.1h6.3c-2.5,4.7-5.8,8.3-9.9,10.8
		s-8.8,3.8-14,3.8c-7.9,0-14.6-2.7-19.9-8.2c-5.3-5.5-8-12.3-8-20.6c0-3.8,0.7-7.5,2.2-10.9c1.4-3.4,3.5-6.5,6.3-9.3
		c2.6-2.6,5.5-4.6,8.7-5.9c3.2-1.3,6.7-2,10.4-2c5.4,0,10.2,1.3,14.5,4s7.7,6.4,10.2,11.3L244.5,621.5L244.5,621.5z"/>
	<path class="st2" d="M263.8,662.1h-5.3v-54.7h5.3V662.1z"/>
	<path class="st2" d="M272.5,662.1h-5.6l20.9-54.7h6.4l20.9,54.7h-5.7l-6.5-17.2h-24L272.5,662.1z M301.2,639.9L291,612.4
		l-10.1,27.5H301.2z"/>
	<path class="st2" d="M328,662.1h-5.3v-49.4h-10.8v-5.4h26.9v5.4H328V662.1z"/>
	<path class="st2" d="M349.6,631.9h22.7v5.4h-22.7v19.5h22.7v5.3h-28v-54.7h28v5.4h-22.7V631.9z"/>
	<path class="st2" d="M379.5,646.4h5.1c0.1,3.4,1,6.1,2.8,8.1s4.1,3,7.1,3c3.1,0,5.6-1,7.5-3c1.8-2,2.8-4.7,2.8-8.1
		c0-5-3.8-8.7-11.3-11.2c-0.6-0.2-1-0.4-1.3-0.5c-4-1.4-6.8-3.1-8.5-5.2c-1.7-2.1-2.6-4.9-2.6-8.3c0-4.4,1.3-7.9,4-10.7
		s6.1-4.2,10.4-4.2c4.1,0,7.3,1.3,9.6,3.8c2.4,2.5,3.7,6.1,4,10.7h-5c-0.3-3-1.1-5.3-2.6-6.9c-1.5-1.6-3.5-2.4-6-2.4
		c-2.7,0-4.9,0.9-6.5,2.7c-1.7,1.8-2.5,4-2.5,6.7c0,1.4,0.3,2.7,0.8,3.7s1.3,2,2.4,2.8c1.1,0.9,3.3,1.8,6.5,2.9
		c1.9,0.6,3.3,1.1,4.2,1.5c3.5,1.4,6,3.1,7.6,5.3c1.5,2.1,2.3,5,2.3,8.4c0,5.3-1.4,9.6-4.3,12.8s-6.6,4.9-11.4,4.9
		c-4.4,0-8-1.5-10.7-4.6C381,655.5,379.6,651.4,379.5,646.4z"/>
	<path class="st2" d="M465.9,662.1h-26.4v-54.7h5.8v49.4h20.6V662.1z"/>
	<path class="st2" d="M482.7,662.1h-5.8v-49.4h-11.7v-5.4h29.2v5.4h-11.7V662.1z"/>
	<path class="st2" d="M500.3,607.3H517c4.6,0,8.4,0.4,11.6,1.3c3.1,0.9,5.9,2.2,8.3,4.1c3.4,2.6,6,5.9,7.8,9.7
		c1.9,3.8,2.8,7.9,2.8,12.2c0,4.8-1,9.2-3.1,13.2c-2,4-4.9,7.2-8.6,9.7c-2.5,1.6-5.1,2.8-8,3.5s-7.3,1.1-13.3,1.1h-14.1v-54.8H500.3
		z M506,612.5v44.4h11.9c7.5,0,13.2-2,17.2-5.9s6-9.5,6-16.6c0-3.6-0.7-6.9-2.1-9.9c-1.4-3-3.3-5.6-5.9-7.6c-1.9-1.6-4-2.7-6.4-3.3
		c-2.4-0.7-5.8-1-10.3-1H506V612.5z"/>
	<path class="st2" d="M559.8,662.1H554v-10h5.8V662.1z"/>
</g>
<g>
	<g>
		<path d="M19.2,662.1h-5.4L34,609.3h6.1L60.2,662h-5.5l-6.2-16.5H25.4L19.2,662.1z M46.8,640.8l-9.9-26.5l-9.7,26.5H46.8z"/>
		<path d="M63.4,647h4.9c0.1,3.3,1,5.9,2.7,7.8c1.7,1.9,4,2.9,6.8,2.9c3,0,5.4-1,7.2-2.9c1.8-1.9,2.7-4.5,2.7-7.8
			c0-4.8-3.6-8.4-10.9-10.8c-0.6-0.2-1-0.3-1.3-0.4c-3.8-1.3-6.6-3-8.2-5.1c-1.7-2-2.5-4.7-2.5-8c0-4.2,1.3-7.6,3.9-10.3s5.9-4,10-4
			c3.9,0,7,1.2,9.3,3.7c2.3,2.4,3.6,5.9,3.8,10.3H87c-0.3-2.9-1.1-5.1-2.5-6.6c-1.4-1.6-3.3-2.3-5.7-2.3c-2.6,0-4.7,0.9-6.3,2.6
			c-1.6,1.7-2.4,3.9-2.4,6.5c0,1.4,0.2,2.6,0.7,3.6s1.3,1.9,2.3,2.7c1.1,0.8,3.2,1.7,6.3,2.8c1.8,0.6,3.1,1,4.1,1.4
			c3.4,1.3,5.8,3,7.3,5.1s2.2,4.8,2.2,8.1c0,5.1-1.4,9.2-4.1,12.4c-2.7,3.1-6.4,4.7-10.9,4.7c-4.2,0-7.7-1.5-10.3-4.4
			C64.8,655.7,63.5,651.8,63.4,647z"/>
		<path d="M97.4,647h4.9c0.1,3.3,1,5.9,2.7,7.8c1.7,1.9,4,2.9,6.8,2.9c3,0,5.4-1,7.2-2.9c1.8-1.9,2.7-4.5,2.7-7.8
			c0-4.8-3.6-8.4-10.9-10.8c-0.6-0.2-1-0.3-1.3-0.4c-3.8-1.3-6.6-3-8.2-5.1c-1.7-2-2.5-4.7-2.5-8c0-4.2,1.3-7.6,3.9-10.3s5.9-4,10-4
			c3.9,0,7,1.2,9.3,3.7c2.3,2.4,3.6,5.9,3.8,10.3H121c-0.3-2.9-1.1-5.1-2.5-6.6c-1.4-1.6-3.3-2.3-5.7-2.3c-2.6,0-4.7,0.9-6.3,2.6
			c-1.6,1.7-2.4,3.9-2.4,6.5c0,1.4,0.2,2.6,0.7,3.6s1.3,1.9,2.3,2.7c1.1,0.8,3.2,1.7,6.3,2.8c1.8,0.6,3.1,1,4.1,1.4
			c3.4,1.3,5.8,3,7.3,5.1s2.2,4.8,2.2,8.1c0,5.1-1.4,9.2-4.1,12.4c-2.7,3.1-6.4,4.7-10.9,4.7c-4.2,0-7.7-1.5-10.3-4.4
			C98.8,655.7,97.4,651.8,97.4,647z"/>
		<path d="M131.5,635.4c0-3.7,0.7-7.2,2.1-10.5c1.4-3.3,3.4-6.3,6.1-8.9c2.5-2.5,5.3-4.4,8.4-5.7s6.4-1.9,9.9-1.9
			c3.6,0,7,0.6,10.1,1.9s5.9,3.2,8.5,5.8s4.6,5.6,6,8.8c1.3,3.3,2,6.8,2,10.5s-0.6,7.2-1.7,10.3c-1.1,3.1-2.9,6-5.1,8.5
			c-2.6,2.9-5.6,5.2-9,6.7c-3.3,1.5-6.9,2.2-10.9,2.2c-7.5,0-13.7-2.7-18.8-8S131.5,643.2,131.5,635.4z M136.8,635.4
			c0,6.4,2.1,11.8,6.2,16.1c4.1,4.3,9.2,6.5,15.2,6.5c5.9,0,10.9-2.2,15-6.6s6.1-9.8,6.1-16.2c0-6-2.1-11.1-6.3-15.5
			c-4.2-4.3-9.2-6.5-15.1-6.5c-2.4,0-4.7,0.4-6.9,1.2s-4.3,2.1-6.2,3.7c-2.5,2.1-4.4,4.7-5.8,7.8
			C137.5,629.1,136.8,632.2,136.8,635.4z"/>
		<path d="M233.1,623c-2.3-3.3-4.9-5.7-7.8-7.2c-2.9-1.5-6.2-2.3-9.9-2.3c-5.8,0-10.7,2.2-14.8,6.5s-6.2,9.5-6.2,15.5
			c0,6.4,2,11.7,6.1,16.1c4.1,4.4,9,6.6,14.9,6.6c3.6,0,6.8-0.8,9.7-2.3s5.4-3.8,7.6-6.8h6.1c-2.4,4.5-5.6,8-9.6,10.4
			c-4,2.5-8.5,3.7-13.5,3.7c-7.6,0-14-2.6-19.1-7.9s-7.7-11.9-7.7-19.8c0-3.7,0.7-7.2,2.1-10.5s3.4-6.3,6.1-8.9
			c2.5-2.5,5.3-4.4,8.3-5.7c3.1-1.3,6.4-1.9,10-1.9c5.2,0,9.8,1.3,13.9,3.8c4.1,2.6,7.4,6.2,9.8,10.9h-6V623z"/>
		<path d="M251.7,662.1h-5.1v-52.7h5.1V662.1z"/>
		<path d="M260.1,662.1h-5.4l20.2-52.7h6.1l20.1,52.7h-5.5l-6.2-16.5h-23.1L260.1,662.1z M287.7,640.8l-9.9-26.5l-9.7,26.5H287.7z"
			/>
		<path d="M313.5,662.1h-5.1v-47.5H298v-5.2h25.9v5.2h-10.4V662.1z"/>
		<path d="M334.3,633h21.8v5.2h-21.8V657h21.8v5.1h-27v-52.7h27v5.2h-21.8V633z"/>
		<path d="M363.1,647h4.9c0.1,3.3,1,5.9,2.7,7.8s4,2.9,6.8,2.9c3,0,5.4-1,7.2-2.9c1.8-1.9,2.7-4.5,2.7-7.8c0-4.8-3.6-8.4-10.9-10.8
			c-0.6-0.2-1-0.3-1.3-0.4c-3.8-1.3-6.6-3-8.2-5.1c-1.7-2-2.5-4.7-2.5-8c0-4.2,1.3-7.6,3.9-10.3s5.9-4,10-4c3.9,0,7,1.2,9.3,3.7
			s3.6,5.9,3.8,10.3h-4.8c-0.3-2.9-1.1-5.1-2.5-6.6s-3.3-2.3-5.7-2.3c-2.6,0-4.7,0.9-6.3,2.6s-2.4,3.9-2.4,6.5
			c0,1.4,0.2,2.6,0.7,3.6s1.3,1.9,2.3,2.7c1.1,0.8,3.2,1.7,6.3,2.8c1.8,0.6,3.1,1,4.1,1.4c3.4,1.3,5.8,3,7.3,5.1s2.2,4.8,2.2,8.1
			c0,5.1-1.4,9.2-4.1,12.4c-2.7,3.1-6.4,4.7-10.9,4.7c-4.2,0-7.7-1.5-10.3-4.4C364.5,655.7,363.2,651.8,363.1,647z"/>
		<path d="M401.3,667.9h-5.1l5.6-15.5h5.1L401.3,667.9z"/>
		<path d="M443.6,662.1h-5.1v-52.7h5.1V662.1z"/>
		<path d="M487.7,655.8l-0.6-46.4h5.1v52.7h-6.1l-28.5-46.5l0.6,46.5h-5v-52.7h6.1L487.7,655.8z"/>
		<path d="M543.4,623c-2.3-3.3-4.9-5.7-7.8-7.2c-2.9-1.5-6.2-2.3-9.9-2.3c-5.8,0-10.7,2.2-14.8,6.5c-4.1,4.3-6.2,9.5-6.2,15.5
			c0,6.4,2,11.7,6.1,16.1c4.1,4.4,9,6.6,14.9,6.6c3.6,0,6.8-0.8,9.7-2.3s5.4-3.8,7.6-6.8h6.1c-2.4,4.5-5.6,8-9.6,10.4
			c-4,2.5-8.5,3.7-13.5,3.7c-7.6,0-14-2.6-19.1-7.9c-5.1-5.3-7.7-11.9-7.7-19.8c0-3.7,0.7-7.2,2.1-10.5s3.4-6.3,6.1-8.9
			c2.5-2.5,5.3-4.4,8.3-5.7c3.1-1.3,6.4-1.9,10-1.9c5.2,0,9.8,1.3,13.9,3.8c4.1,2.6,7.4,6.2,9.8,10.9h-6V623z"/>
		<path d="M563.7,662.1h-5.1v-9.6h5.1V662.1z"/>
	</g>
	<g>
		<path d="M96.5,77.2h-4.6v92.2c0.6,0.2,1.2,0.4,1.7,0.5s1.2,0.1,2,0.1c3.4,0,6-1,7.8-3c1.7-2,2.6-4.9,2.6-8.9v-70
			c0-3.4-0.8-6.1-2.5-8C101.8,78.1,99.5,77.2,96.5,77.2z"/>
		<path d="M96.5,205.8h-4.6v113.8c0.5,0.2,1,0.4,1.6,0.5s1.3,0.1,2.1,0.1c3.4,0,6-1,7.8-3c1.7-2,2.6-4.9,2.6-8.9v-91.5
			c0-3.6-0.8-6.3-2.5-8.2C101.8,206.7,99.5,205.8,96.5,205.8z"/>
		<path d="M10,8v554.9h172.8V8H10z M147.9,139.3c0,12.9-1.4,22.8-4.2,29.5s-7.5,12.2-14.3,16.4c6.8,3.8,11.6,8.7,14.3,14.6
			c2.8,5.9,4.2,15.9,4.2,29.9v62.1c0,26.1-3.3,42.8-9.9,49.9c-6.6,7.1-20.4,10.7-41.5,10.7H49.9V45h56.4c14.8,0,25.4,3.7,31.9,11
			s9.7,19.2,9.7,35.6V139.3z"/>
	</g>
	<path d="M202.1,8v554.9h172.8V8H202.1z M338.7,352.4h-35.1l-27.7-163.6h-3l2.2,163.6h-36.6V44.7h35.1l27,150.3h3l-1.5-150.3h36.6
		V352.4z"/>
	<g>
		<path d="M478.2,77.2h-3v129.6h3c4.4,0,7.4-0.9,8.9-2.6c1.5-1.7,2.2-6.2,2.2-13.3v-2V93.1c0-7.3-0.7-11.7-2.2-13.4
			C485.6,78,482.7,77.2,478.2,77.2z"/>
		<path d="M394.2,7.9v554.6H567V7.9H394.2z M531.3,177.2c0,27.4-2.8,44.5-8.5,51.4c-5.7,6.9-16.9,10.3-33.8,10.3h-13.7v113.5h-42V45
			h55.6c16.9,0,28.2,3.5,33.8,10.3c5.7,6.9,8.5,24,8.5,51.4L531.3,177.2L531.3,177.2z"/>
	</g>
</g>
</svg>
